<svg xmlns="http://www.w3.org/2000/svg" width="283.46" height="283.46" xmlns:v="https://vecta.io/nano"><path fill-rule="evenodd" fill="#00628b" d="M283.462 141.731c0 78.272-63.456 141.73-141.73 141.73S-.001 220.003-.001 141.731C-.001 63.453 63.455-.002 141.732-.002s141.73 63.455 141.73 141.733h0z"/><g fill="#fff"><path d="M249.161 98.169l-1.226-2.904 6.689-1.074-5.463 3.978h0zm-4.326 7.166l1.938-.813-.458-1.093 10.637-8.185-1.341-3.205-13.302 1.863-.442-1.055-1.938.813 1.14 2.709 4.822-.804 1.604 3.821-3.931 2.916 1.271 3.033h0zm-5.698-13.273l1.822-1.045-.636-1.112 3.163-1.816c1.473-.845 1.868-2.264 1.086-3.636l-.758-1.311 5.322.314.877 1.521 1.837-1.056-1.485-2.585-7.879-.121 5.872-3.373-1.833-3.195-1.838 1.053.636 1.112-9.415 5.41-.639-1.108-1.822 1.045 1.837 3.197 5.667-3.255 1.559 2.719c.325.562.108.99-.605 1.4l-4.604 2.646 1.836 3.196h0zm-5.101-13.786l2.647-1.938c1.376-1.006 1.608-2.433.671-3.709l-1.833-2.515c-.384-.524-.205-.989.453-1.47l1.419-1.038c.675-.493 1.138-.505 1.527.023l1.837 2.51-1.555 1.14 1.398 1.911 3.265-2.39-3.655-4.994c-.934-1.278-2.391-1.492-3.76-.492l-2.476 1.812c-1.373 1.005-1.613 2.456-.68 3.737l1.83 2.497c.384.525.217.978-.462 1.472l-1.558 1.141c-.663.483-1.159.517-1.543-.007l-2.007-2.745 1.883-1.374-1.457-1.991-3.577 2.617 3.896 5.316c.931 1.286 2.382 1.478 3.737.487h0zm.427-16.342l1.527-1.475-2.441-2.526-6.396 6.178c-.469.449-.977 1.023-1.516 1.727l4.074-11.876-2.636-2.736-1.527 1.476.892.918-7.814 7.546-.892-.922-1.511 1.46 2.444 2.528 6.385-6.168c.465-.45.988-1.033 1.542-1.755l-3.934 12.059 1.593 1.646 9.321-9.002.889.922h0zm2.043-7.073l-1.647-1.702-3.298 1.008 1.313 1.362 3.632-.668h0zm-21.268 5.948l1.326-1.628-.915-.75 5.566-12.215-2.689-2.2-10.876 7.876-.892-.723-1.325 1.626 2.277 1.862 3.881-2.973 3.213 2.623-2.108 4.419 2.542 2.083h0zm.461-8.36l-2.437-1.992 5.402-4.08-2.965 6.072h0zm-3.941-11.071l1.108-1.808-2.999-1.833-4.637 7.588c-.34.553-.688 1.235-1.03 2.053l.954-12.521-3.241-1.982-1.104 1.813 1.093.664-5.663 9.27-1.093-.669-1.098 1.793 3.005 1.833 4.627-7.574a16.52 16.52 0 0 0 1.05-2.089l-.774 12.659 1.958 1.195 6.752-11.058 1.092.666h0zm-19.673 3.297l1.964-4.264-2.131-.98-1.09 2.354-4.457-2.052 10.973-7.114.809-1.75-8.953-4.126-1.949 4.232 2.151.991 1.063-2.305 4.232 1.948-10.992 7.063-.814 1.769 9.194 4.234zm-12.606-9.077c-.264.777-.63 1.095-1.242.888l-2.714-.925c-.616-.203-.732-.689-.469-1.469l2.702-7.949c.267-.793.647-1.069 1.26-.861l2.713.923c.611.205.729.651.457 1.444l-2.707 7.949h0zm2.105 1.358l3.09-9.087c.547-1.608-.093-2.936-1.597-3.445l-4.05-1.378c-1.502-.51-2.82.155-3.361 1.764l-3.085 9.089c-.544 1.589.093 2.918 1.597 3.426l4.047 1.378c1.507.509 2.821-.152 3.359-1.747h0zm-12.229-11.14c-.162.805-.508 1.144-1.139 1.016l-3.039-.615.863-4.241 3.036.615c.636.131.821.56.655 1.377l-.376 1.848h0zm2.338.592l.516-2.541c.333-1.664-.445-2.895-1.999-3.21l-7.357-1.491-.422 2.075 1.255.258-2.158 10.642-1.256-.256-.419 2.061 5 1.013.419-2.061-1.389-.278.9-4.438 3.371.686c1.777.358 3.148-.556 3.539-2.46h0zm-26.702-.61l-3.151-.041 1.691-6.562 1.46 6.603h0zm4.839 6.825l.029-2.101-1.185-.014-3.25-13.025-3.477-.042-3.607 12.93-1.146-.016-.025 2.102 2.939.038 1.19-4.74 4.143.055 1.103 4.771 3.286.042h0zm-14.135-.112l-.231-2.089-1.271.142-.401-3.627c-.184-1.689-1.325-2.622-2.903-2.447l-1.497.165 2.416-4.754 1.749-.191-.235-2.107-2.961.326-3.263 7.171-.743-6.731-3.664.405.232 2.107 1.273-.142 1.186 10.793-1.271.144.229 2.086 3.667-.401-.715-6.493 3.112-.346c.647-.07.955.3 1.046 1.116l.58 5.281 3.665-.408h0zm-13.267 1.672l-.409-2.062-1.276.254-2.128-10.649 1.278-.254-.415-2.081-4.889.976.414 2.08 1.255-.25 2.126 10.647-1.255.254.411 2.058 4.888-.973zm-10.487-11.084l-.622-2.026-3.36 1.032 2.616 8.501c.189.62.473 1.333.854 2.132l-8.746-9.01-3.633 1.118.624 2.025 1.222-.375 3.193 10.377-1.223.376.615 2.01 3.362-1.035-2.61-8.482c-.191-.622-.476-1.354-.868-2.172l8.973 8.967 2.188-.675-3.811-12.388 1.226-.375h0zM101.455 40.09l-.89-1.903-1.16.541-4.595-9.858 1.161-.539-.896-1.923-3.344 1.558 2.79 5.979-4.068 1.899-2.79-5.981-3.344 1.556.9 1.923 1.159-.541 4.599 9.858-1.161.541.888 1.904 3.339-1.557-2.783-5.971 4.067-1.899 2.785 5.972 3.343-1.559zm-12.86 6.139l-2.467-4.087-1.815 1.096 1.379 2.287-3.188 1.925c-.555.336-1 .113-1.427-.59l-4.342-7.188c-.431-.713-.399-1.181.156-1.517l3.188-1.925 1.351 2.235 1.813-1.096-2.445-4.051-5.608 3.388c-1.359.82-1.696 2.252-.817 3.705l4.961 8.217c.868 1.439 2.294 1.805 3.651.983l5.61-3.382h0zm-9.759 6.153l-2.954-3.779-1.684 1.316 1.657 2.124-3.657 2.856-2.882-3.686 3.792-2.967-1.248-1.593-3.792 2.962-2.555-3.271 3.537-2.762 1.571 2.012 1.656-1.295-2.878-3.686-8.098 6.328 1.308 1.671 1.007-.787 6.685 8.557-1.008.789 1.295 1.653 8.248-6.442zm-17.158-.209l-2.97-3.027-8.327 8.176 2.969 3.027 1.594-1.569-1.484-1.51 1.706-1.671 7.609 7.748-.997.976 1.472 1.5 3.735-3.669-1.472-1.5-1.008.992-7.609-7.745 1.704-1.673 1.483 1.508 1.595-1.563zm-1.785 17.12l-1.601-1.361-.842.991-8.275-7.036.844-.992-1.613-1.372-3.23 3.798 1.614 1.373.829-.975 8.273 7.034-.829.977 1.599 1.361 3.231-3.798zm-4.75 5.696l-4.187-2.933-1.251 1.783 2.471 1.728-2.303 3.283-8.894-6.229.799-1.143-1.733-1.214-2.915 4.16 1.735 1.215.734-1.048 8.893 6.232-.735 1.048 1.721 1.203 5.665-8.085zM44.087 85.548c.725.385.979.802.676 1.376l-1.347 2.527c-.303.576-.801.614-1.525.228l-7.418-3.941c-.737-.394-.949-.811-.645-1.382l1.346-2.533c.306-.57.76-.61 1.498-.218l7.415 3.943h0zm1.678-1.856l-8.473-4.505c-1.503-.799-2.914-.382-3.657 1.02l-2.012 3.774c-.74 1.401-.297 2.806 1.202 3.604l8.475 4.506c1.484.788 2.895.37 3.64-1.029l2.011-3.774c.742-1.401.3-2.807-1.186-3.596h0zM32.461 94.17c.764.296 1.041.689.806 1.296l-1.118 2.884-4.032-1.566 1.12-2.884c.232-.604.684-.718 1.467-.415l1.757.685h0zm.978-2.204l-2.417-.938c-1.583-.612-2.93-.048-3.504 1.427l-2.715 7 1.979.768.461-1.194 10.122 3.926-.461 1.198 1.958.76 1.844-4.756-1.956-.762-.51 1.32-4.224-1.639 1.244-3.205c.658-1.693-.009-3.2-1.821-3.905h0zm219.047 37.053l-2.116.118.163 2.785 6.34 2.579-6 3.313.175 3.012 2.116-.122-.073-1.278 6.069-3.756 4.574-.264.078 1.372 2.1-.12-.294-5.112-2.101.122.078 1.335-4.691.269-6.341-2.978-.077-1.275zm13.581 14.414l-8.644-.364-.201 4.791 2.116.089.104-2.48 4.426.186-.15 3.718c-.031.65-.462.902-1.279.868l-8.396-.351c-.837-.039-1.206-.317-1.178-.968l.155-3.729 2.473.109.093-2.155-4.593-.193-.275 6.585c-.07 1.585.938 2.658 2.636 2.729l9.593.402c1.678.067 2.771-.918 2.842-2.499l.278-6.738h0zm-4.504 15.146c.813.136 1.186.442 1.085 1.085l-.453 2.83c-.104.64-.562.837-1.367.709l-8.296-1.333c-.829-.128-1.163-.454-1.062-1.093l.457-2.833c.1-.641.52-.822 1.345-.692l8.291 1.327h0zm.992-2.295l-9.479-1.519c-1.679-.271-2.88.581-3.128 2.147l-.679 4.221c-.256 1.573.62 2.751 2.303 3.022l9.477 1.516c1.658.268 2.856-.581 3.112-2.146l.674-4.226c.248-1.569-.62-2.75-2.28-3.015h0zm.488 12.939l-4.944-1.311-.559 2.104 2.914.776-1.03 3.88-10.492-2.783.353-1.346-2.047-.545-1.302 4.914 2.054.542.326-1.239 10.496 2.782-.326 1.237 2.031.538 2.526-9.549zm-7.914 14.638c.768.294 1.078.671.85 1.279l-1.02 2.678c-.229.608-.722.705-1.488.419l-7.853-2.98c-.779-.295-1.043-.683-.811-1.29l1.016-2.68c.229-.604.679-.705 1.457-.406l7.849 2.98h0zm1.434-2.054l-8.977-3.402c-1.585-.605-2.938-.012-3.496 1.469l-1.517 4c-.562 1.488.052 2.821 1.645 3.426l8.973 3.403c1.574.597 2.923.004 3.481-1.478l1.519-3.999c.558-1.485-.054-2.819-1.628-3.419h0zm-13.976 7.395l-1.86-1.019-1.689 3.076 7.794 4.283c.57.312 1.268.632 2.098.931l-12.551-.374-1.831 3.33 1.861 1.021.613-1.12 9.518 5.227-.615 1.125 1.841 1.009 1.69-3.078-7.775-4.275a15.22 15.22 0 0 0-2.14-.952l12.69.188 1.101-2.007-11.364-6.24.619-1.125h0zm2.907 21.212l-1.685-1.255-.764 1.027-8.73-6.493.759-1.026-1.704-1.26-2.193 2.957 5.298 3.938-2.678 3.601-5.298-3.93-2.198 2.953 1.701 1.263.764-1.023 8.728 6.484-.76 1.032 1.69 1.248 2.194-2.957-5.287-3.931 2.675-3.604 5.295 3.93 2.193-2.954zm-9.806 12.748l-3.526-3.209-1.427 1.569 1.977 1.794-2.503 2.761c-.438.477-.931.391-1.535-.159l-6.218-5.644c-.62-.565-.725-1.022-.286-1.5l2.504-2.756 1.931 1.756 1.426-1.565-3.5-3.186-4.407 4.853c-1.065 1.17-.98 2.638.279 3.778l7.101 6.457c1.248 1.132 2.718 1.078 3.782-.098l4.402-4.851h0zm-9.233 9.623l-3.116-3.642-1.619 1.387 1.743 2.05-3.526 3.016-3.04-3.554 3.66-3.13-1.318-1.536-3.655 3.127-2.701-3.159 3.41-2.914 1.659 1.937 1.597-1.368-3.039-3.55-7.806 6.678 1.372 1.612.977-.833 7.054 8.256-.968.832 1.363 1.594 7.953-6.803zm-16.891.024l-2.352-3.523-9.701 6.485 2.352 3.522 1.861-1.243-1.179-1.76 1.988-1.323 6.032 9.027-1.164.772 1.171 1.752 4.35-2.911-1.164-1.748-1.178.783-6.03-9.027 1.983-1.325 1.178 1.755 1.853-1.236zm-17.588 11.216l-1.892-4.274-9.102 4.022.863 1.943 1.169-.52 4.388 9.93-1.171.52.853 1.921 4.698-2.077-.852-1.922-1.326.588-1.854-4.192 4.559-2.021-.852-1.937-4.566 2.015-1.682-3.798 3.658-1.612 1.031 2.338 2.078-.924zm-30.46 7.396l-.268-2.102-2.768.357-2.131 6.508-3.721-5.759-2.993.38.263 2.1 1.273-.158 4.167 5.793.581 4.542-1.365.176.268 2.085 5.076-.647-.266-2.086-1.325.171-.594-4.66 2.531-6.538 1.272-.162zm-13.205 3.662l-.035-4.235-11.672.092.039 4.236 2.232-.019-.016-2.108 2.386-.024.088 10.857-1.391.013.017 2.099 5.231-.039-.018-2.104-1.412.011-.087-10.856 2.386-.024.017 2.117 2.235-.016zm-14.783 10.687l.182-2.093-1.295-.113.948-10.817 1.294.116.185-2.117-4.967-.434-.183 2.109 1.277.112-.95 10.818-1.276-.109-.181 2.09 4.966.438zm-8.529-3.504l.603-3.229c.311-1.67-.496-2.868-2.052-3.162l-3.061-.57c-.639-.119-.823-.581-.676-1.388l.325-1.721c.152-.824.487-1.15 1.124-1.034l3.062.573-.354 1.892 2.328.438.743-3.977-6.082-1.14c-1.559-.295-2.768.55-3.075 2.22l-.566 3.021c-.314 1.67.51 2.892 2.065 3.186l3.043.565c.639.116.827.562.674 1.388l-.354 1.896c-.153.81-.492 1.174-1.13 1.055l-3.339-.629.427-2.285-2.423-.455-.815 4.354 6.479 1.213c1.556.289 2.744-.556 3.054-2.211h0zm-12.082.549l.592-2.015-1.242-.368.822-2.787c.467-1.569.195-2.47-1.191-3.302 1.371.213 2.176-.229 2.529-1.415l.687-2.321c.483-1.628-.193-2.923-1.715-3.372l-7.197-2.133-.599 2.035 1.227.361-3.081 10.417-1.226-.368-.595 2.017 3.533 1.046 1.881-6.356 3.021.896c.644.19.743.655.508 1.446l-1.523 5.162 3.569 1.057h0zm-.816-10.515c-.233.784-.604 1.09-1.226.908l-2.967-.876 1.226-4.147 2.969.872c.623.186.771.627.535 1.434l-.537 1.809h0zm-13.744 6.054l1.893-4.403-1.966-.844-1.064 2.473-4.26-1.83 1.845-4.303 4.424 1.901.795-1.861-4.421-1.9 1.641-3.821 4.124 1.775-1.008 2.349 1.928.829 1.847-4.29-9.442-4.062-.838 1.949 1.178.504-4.287 9.976-1.179-.503-.829 1.935 9.619 4.126zm-6.4-16.847l1.055-1.846-2.802-1.6-8.584 9.015 3.392-11.98-2.789-1.594-1.05 1.842 1.109.635-3.428 12.965 2.537 1.45 9.45-9.523 1.11.636zm-19.992 3.135l1.227-1.709-1.056-.755 6.325-8.826 1.058.759 1.233-1.732-4.055-2.9-1.233 1.725 1.042.748-6.325 8.825-1.043-.744-1.223 1.701 4.05 2.908zm1.695-14.704l1.393-1.602-2.657-2.302-5.831 6.713c-.425.491-.886 1.104-1.354 1.853l3.021-12.189-2.871-2.492-1.388 1.601.967.838-7.121 8.2-.968-.841-1.376 1.589 2.649 2.303 5.821-6.701c.428-.484.897-1.116 1.385-1.884l-2.865 12.356 1.732 1.504 8.498-9.786.965.84h0zm-11.212-9.869l1.589-1.399-2.335-2.651-8.81 7.76c-.614.543-1.107.62-1.535.132l-1.994-2.267c-.431-.485-.281-.95.34-1.497l8.806-7.751-2.449-2.783-1.594 1.399.86.977-7.317 6.445c-1.477 1.299-1.6 3.037-.389 4.411l2.212 2.511c1.224 1.392 2.961 1.489 4.44.187l7.317-6.441.859.967h0zm-13.537-16.701l1.836-1.062-1.765-3.043-7.692 4.465c-.561.326-1.194.76-1.884 1.318l6.802-10.559-1.909-3.282-1.83 1.062.641 1.104-9.387 5.457-.646-1.104-1.813 1.05 1.766 3.043 7.673-4.459c.562-.328 1.209-.77 1.916-1.336l-6.705 10.768 1.152 1.98 11.205-6.508.64 1.106h0zm-14.747-14.197l-1.238-2.898 6.684-1.104-5.446 4.002h0zm-4.289 7.19l1.933-.826-.462-1.089 10.595-8.236-1.364-3.197-13.286 1.925-.449-1.049-1.933.821 1.155 2.705 4.816-.829 1.625 3.814-3.918 2.93 1.288 3.031h0zm6.847-17.348l2.035-.59-.986-3.376-8.539 2.493c-.621.181-1.343.449-2.145.822l9.14-8.617-1.066-3.643-2.038.589.361 1.232-10.426 3.039-.356-1.226-2.02.59.986 3.368 8.52-2.484a16.31 16.31 0 0 0 2.184-.838l-9.093 8.841.641 2.201 12.44-3.628.362 1.227h0zm-16.914-12.659l4.639-.736-.368-2.314-2.563.407-.769-4.849 12.005 5.174 1.907-.302-1.539-9.736-4.599.729.366 2.341 2.508-.395.727 4.6-11.974-5.222-1.922.303 1.582 10zm1.184-16.263c-.822.047-1.253-.186-1.283-.837l-.142-2.861c-.031-.643.376-.934 1.197-.971l8.384-.407c.838-.048 1.233.2 1.265.848l.142 2.861c.034.65-.337.918-1.176.957l-8.387.41h0zm-.492 2.458l9.589-.473c1.697-.086 2.695-1.163 2.617-2.752l-.21-4.272c-.078-1.584-1.177-2.559-2.873-2.479l-9.589.473c-1.678.086-2.68 1.163-2.6 2.748l.21 4.268c.077 1.587 1.179 2.568 2.856 2.487h0zm6.769-15.133c-.817-.062-1.196-.356-1.147-1.006l.239-3.087 4.313.335-.236 3.083c-.053.647-.454.888-1.289.821l-1.88-.146h0zm-.3 2.392l2.585.2c1.694.128 2.817-.8 2.939-2.377l.578-7.484-2.114-.165-.098 1.276-10.827-.832.096-1.277-2.094-.165-.39 5.087 2.094.163.108-1.411 4.516.348-.266 3.428c-.139 1.811.93 3.059 2.873 3.209h0zm153.55 116.508c.256.782.155 1.255-.462 1.465l-2.724.896c-.613.205-1-.109-1.256-.892l-2.636-7.97c-.268-.798-.132-1.243.484-1.448l2.721-.898c.615-.198.973.08 1.237.875l2.636 7.972h0zm2.495-.178l-3.015-9.116c-.534-1.611-1.845-2.287-3.349-1.786l-4.062 1.343c-1.504.498-2.155 1.815-1.62 3.436l3.016 9.108c.526 1.593 1.832 2.271 3.341 1.771l4.062-1.341c1.504-.501 2.154-1.826 1.627-3.415h0z"/><path d="M223.199 154.563c.671-4.29 1.031-8.604 1.031-12.834a81.25 81.25 0 0 0-.271-6.455l14.218-4.618 1.093-.355-.147-1.135a97.24 97.24 0 0 0-8.516-29.222l-.523-1.106-1.155.38-13.976 4.542a82.55 82.55 0 0 0-11.589-16.835l8.729-12.02.682-.944-.814-.833a98.28 98.28 0 0 0-24.363-18.215l-1.058-.56-.709.969-8.671 11.929c-6.299-2.997-12.98-5.179-19.887-6.496V45.984v-1.197l-1.183-.175c-4.732-.691-9.552-1.045-14.329-1.045-5.355 0-10.771.444-16.093 1.318l-1.156.19v1.178 14.839c-6.709 1.429-13.234 3.713-19.432 6.794l-8.641-11.893-.718-.984-1.069.585C85.698 60.5 77.59 66.75 70.548 74.171l-.789.835.673.931 8.786 12.088c-4.274 4.967-7.934 10.413-10.898 16.216l-13.951-4.534-1.169-.375-.513 1.111c-4.307 9.273-7.117 19.124-8.354 29.272l-.138 1.135 1.084.351 14.246 4.629c-.153 2.104-.232 4.05-.232 5.899 0 4.06.325 8.184.945 12.3l-13.976 4.539-1.159.372.226 1.205A97.49 97.49 0 0 0 55.6 188.791l.551 1.009 1.089-.354 14.223-4.624a83.1 83.1 0 0 0 10.416 13.572l-8.667 11.931-.705.973.86.834a98.49 98.49 0 0 0 24.829 17.58l1.049.519.688-.944 8.736-12.031c5.11 2.241 10.427 3.958 15.843 5.112V237.2v1.179l1.156.193c5.312.872 10.725 1.316 16.093 1.316 4.771 0 9.593-.352 14.325-1.041l1.187-.18v-1.188-14.771a82.43 82.43 0 0 0 16.256-4.876l8.773 12.078.683.934 1.039-.499a98.22 98.22 0 0 0 25.093-17.209l.883-.835-.713-.983-8.636-11.883c4.222-4.303 7.958-9.05 11.124-14.136l14.24 4.624 1.086.356.55-.999c4.961-8.942 8.477-18.566 10.438-28.601l.236-1.201-1.162-.381-13.964-4.534h0zm2.567 32.373l-14.154-4.598-1.047-.345-.566.942c-3.379 5.584-7.465 10.759-12.122 15.387l-.846.833.697.957 8.589 11.826a95.26 95.26 0 0 1-22.465 15.397l-8.731-12.011-.655-.907-1.016.445c-5.666 2.462-11.659 4.257-17.806 5.338l-1.14.197v1.163 14.7c-4.225.559-8.502.861-12.744.861-4.828 0-9.694-.384-14.481-1.121v-14.756-1.135l-1.117-.221c-5.956-1.182-11.803-3.073-17.383-5.612l-1.028-.465-.665.915-8.692 11.965a95.62 95.62 0 0 1-22.226-15.729l8.628-11.867.687-.947-.816-.836c-4.382-4.504-8.222-9.503-11.405-14.852l-.565-.946-1.055.337-14.144 4.598c-4.29-8.062-7.379-16.674-9.199-25.64l13.903-4.511 1.132-.365-.191-1.178c-.716-4.349-1.084-8.732-1.084-13.028 0-2.091.104-4.304.31-6.766l.092-1.089-1.046-.343-14.173-4.605a94.87 94.87 0 0 1 7.461-26.197l13.88 4.508 1.141.37.528-1.074a79.63 79.63 0 0 1 11.765-17.522l.732-.831-.65-.897-8.733-12.023c6.37-6.558 13.616-12.145 21.565-16.631l8.597 11.829.697.965 1.061-.548c6.622-3.415 13.647-5.874 20.879-7.307l1.117-.221V62.21 47.449c4.799-.728 9.663-1.115 14.481-1.115 4.249 0 8.527.3 12.744.864v14.699 1.16l1.14.204c7.445 1.308 14.626 3.654 21.349 6.975l1.05.517.685-.945 8.625-11.87a95.87 95.87 0 0 1 21.803 16.306l-8.683 11.951-.666.916.763.834c4.957 5.411 9.144 11.504 12.465 18.112l.531 1.063 1.132-.368 13.903-4.519c3.789 8.329 6.352 17.113 7.611 26.151l-14.147 4.596-1.05.341.102 1.104c.231 2.554.348 4.944.348 7.305 0 4.463-.395 9.024-1.169 13.556l-.202 1.178 1.135.373 13.887 4.511c-1.877 8.944-5.02 17.537-9.353 25.588h0zm-64.859-97.423c-2.264.509-4.062-.347-4.764-1.26s.21-3.714.98-3.572c.775.141.069.632-.144 1.892-.205 1.26.562 1.611.562 1.611 7.217-5.462 1.612-7.147 1.612-7.147 1.961-2.308.845-5.742.845-5.742-4.488 1.471-4.559 5.045-4.559 5.045-1.051-1.681-3.922-.631-4.62.98-.705 1.608-.557 6.092-.557 6.092 2.866.633 2.235-3.15 3.286-3.29s1.683 3.502-3.221 4.412-6.168-1.891-6.723-3.434c-.562-1.538 1.26-2.874 1.678-.77s2.103 2.87 2.103 2.87c-.63-1.536 1.892-3.921 1.683-6.583s-4.764-1.258-4.764-1.258c.577-1.315.356-2.674-.145-3.86-.296-.701-.682-1.341-1.061-1.878V71.06h2.06v-2.697h-2.06v-1.577h-2.691v1.577h-2.059v2.697h2.059v2.66a10.47 10.47 0 0 0-.998 1.779c-.497 1.187-.712 2.545-.138 3.86 0 0-4.55-1.402-4.764 1.258-.208 2.662 2.312 5.047 1.684 6.583 0 0 1.681-.768 2.103-2.87s2.237-.769 1.679.77-1.821 4.344-6.725 3.434-4.268-4.552-3.221-4.412.42 3.923 3.295 3.29c0 0 .135-4.483-.566-6.092s-3.571-2.661-4.622-.98c0 0-.066-3.574-4.551-5.045 0 0-1.122 3.435.84 5.742 0 0-5.603 1.686 1.614 7.147 0 0 .768-.352.557-1.611s-.908-1.751-.136-1.892c.767-.142 1.676 2.663.979 3.572s-2.503 1.769-4.766 1.26c-4.988-1.119-1.279-9.035-7.845-9.805 0 0 3.492 8.455 7.684 13.52h38.557c4.19-5.064 7.683-13.52 7.683-13.52-6.563.77-2.859 8.686-7.843 9.805h0zm-4.966 26.009c-.771-.091-2.039-.455-2.391-1.011a7.76 7.76 0 0 0 .674-3.124c0-.746-.124-1.541-.484-2.295-.287-.81-.849-1.395-1.627-1.715-.57-.321-1.199-.487-1.857-.487a3.89 3.89 0 0 0-3.873 3.872c0 1.432.811 2.712 2.059 3.386-.008.023-.008.023-.011.039l-1.399.114-.07.217c-.007.032-.051.182-.051.382a1.23 1.23 0 0 0 .176.647c.073.123.22.244.414.35-.069.091-.073.123-.112.189l-1.547.071-.021.293v.106c0 .312.091.734.396 1.021-.045.066-.07.087-.109.13h-1.12c-.003-.006-.532-.104-.778-.142l-1.189-1.436c-.261-.984-.359-1.748-.359-2.289 0-1.161.399-1.467.399-1.479.994-.382 1.225-.75 1.262-.977.146-.297.246-.604.246-.894 0-.234-.062-.48-.169-.711a1.92 1.92 0 0 0-.38-.557v-.01c-.585-.608-1.443-.977-2.034-.979-.245 0-.56.045-.634.314-.052.146-.189.245-.356.227-.153-.01-.289-.131-.306-.294-.009-.032-.08-.554-.528-1.09-.067-.049-.118-.116-.193-.153-.773-.409-1.812-.317-2.593.215-.83.572-1.221 1.549-1.093 2.687l.083.682.496-.491c.638-.646 2.163.503 2.783 1.054l-.198 3.504c-.975.988-2.023 2.298-2.321 2.676l-.829.147-1.066-.006c-.053-.043-.061-.063-.11-.13.302-.287.396-.709.396-1.021l-.003-.106-.024-.293-1.533-.071-.118-.189c.196-.105.343-.227.418-.35a1.28 1.28 0 0 0 .17-.647c0-.2-.042-.35-.053-.382l-.061-.217-1.409-.114c-.005-.016-.005-.016-.015-.039 1.256-.674 2.065-1.954 2.065-3.386 0-2.125-1.732-3.872-3.883-3.872-.646 0-1.283.166-1.877.505-.759.303-1.307.888-1.63 1.74-.335.727-.463 1.511-.463 2.25a7.74 7.74 0 0 0 .688 3.126c-.354.556-1.631.92-2.397 1.011l-.376.049.091.38c.353 1.45 1.547 1.979 3.437 1.533.301-.079.592-.246.864-.475l.354.484-.314 3.203c-.103.702-1.736 1.126-2.517 1.23l-.378.049.086.362c.365 1.465 1.569 1.992 3.438 1.549 1.055-.256 1.833-1.341 2.348-3.147.044.062.071.087.101.121l-.496 5.395c-.094.699-1.74 1.139-2.516 1.239l-.379.043.092.372c.369 1.447 1.543 1.988 3.437 1.533 2.118-.498 2.699-4.187 2.85-5.648v4.438l.433.061-.005.104a2.28 2.28 0 0 0 .013.234l-1.55 3.411c-2.033-.318-3.82.744-3.899.798l.764 1.264c.012-.008.626-.366 1.467-.55-.488.475-.925 1.029-1.085 1.608l1.425.394c.176-.624 1.351-1.572 2.141-2.022.064-.054.132-.098.181-.164.394-.104 1.585-.147 2.711-.106l.067-1.486c-.86-.031-1.516-.018-2.019.006l1.227-2.715c.015-.018.05-.031.067-.039l.506.297 1.126-.417c.097.201.244.661.244 1.744a20.14 20.14 0 0 1-.114 1.924c-.099.915-.45 1.6-1.037 2.045-1.205.847-3.013.458-3.032.451l-.655-.126.27.599c.537 1.253 1.3 1.995 2.217 2.177.87.17 1.677-.168 2.238-.523l-.039.528c0 1.778 1.172 3.123 1.237 3.19l.244.281.244-.277c.073-.067 1.272-1.426 1.272-3.215 0-.156-.02-.337-.05-.508.566.355 1.381.693 2.244.523.93-.182 1.67-.924 2.225-2.177l.258-.599-.646.126c-.011.007-1.828.396-3.021-.451-.599-.445-.965-1.13-1.05-2.045l-.119-1.924c0-1.083.154-1.543.24-1.744l1.139.417.354-.216 1.294 2.667a26.01 26.01 0 0 0-1.97 0l.059 1.486c1.181-.047 2.438.008 2.766.118.039.055.077.11.126.152.785.45 1.973 1.398 2.144 2.022l1.437-.394c-.162-.579-.603-1.134-1.091-1.608.827.184 1.44.542 1.457.55l.767-1.264c-.085-.062-1.88-1.123-3.92-.792l-1.501-3.091c.069-.173.092-.363.092-.561v-.104l.421-.061v-4.438c.162 1.462.742 5.15 2.862 5.648 1.868.455 3.054-.086 3.431-1.533l.093-.372-.388-.043c-.775-.101-2.408-.54-2.516-1.239l-.492-5.395c.027-.034.065-.059.097-.121.526 1.807 1.302 2.892 2.341 3.147 1.892.443 3.077-.084 3.45-1.549l.093-.362-.381-.049c-.782-.104-2.413-.528-2.52-1.23l-.309-3.203.353-.484c.274.229.554.396.863.475 1.889.445 3.071-.083 3.435-1.533l.098-.38-.397-.045h0zm-10.136 17.774h0 0 0zm-1.047-24.254l.421.242.75-1.286-.89-.519.523-.887-1.273-.74-.521.878-.887-.524-.755 1.28.17.105a3.89 3.89 0 0 1 2.462 1.451h0zm-27.273 24.998l1.344 4.476 2.883 3.332.799-.17.278-3.488-5.304-4.15h0zm-2.106 3.497a.25.25 0 0 0-.255-.253c-.128 0-.239.108-.239.253 0 .123.111.231.239.231.141.001.255-.108.255-.231h0zm-8.523-8.028l-5.929-4.778-2.675-.407 1.13 2.569 5.791 4.837 1.683-2.221h0zm3.469 8.937l2.906-1.646.657-1.169.025-.804-1.758-.448-1.932 3.158-3.927.824-.302-1.459 1.735-.356-.026-.021 1.376-1.591-3.854-3.173-2.911 3.841 3.283 6.167 4.728-3.323h0zm5.331-5.333l1.109-1.524 5.359 4.193-2.213-5.685-4.118-1.015c2.943-1.318 5.01-4.262 5.01-7.7 0-4.656-3.779-8.43-8.435-8.43a8.44 8.44 0 0 0-8.432 8.43c0 3.438 2.066 6.382 5.011 7.7l-1.526-.219-.502.67 4.064 3.197 1.292-1.502 1.127.954-.695.807 2.731.691-.082 2.148c.843.117 1.506.83 1.506 1.707 0 .937-.777 1.726-1.739 1.726-.659 0-1.235-.397-1.529-.962l-2.484 1.396c-.01 0-4.638 3.264-5.314 3.744l-.184 2.542-1.055 13.264h15.864l.356-11.927.11-4.165-3.386-3.907-1.845-6.133h0zm-1.711-10.687c.481-.817.933-1.862.935-2.191 0-1.108-.991-2-2.214-2s-2.225.892-2.225 2h-2.688c0-2.586 2.194-4.687 4.913-4.687 2.713 0 4.915 2.101 4.915 4.687 0 1.262-1.012 3.062-1.32 3.579l-2.316-1.388h0zm51.156 16.559l.035 2.429 2.429-.03-.022-2.418-2.442.019h0zm12.449-7.525l1.45 1.405 3.119-3.156-1.445-1.411-1.562-.091.841-.888-1.135-1.121-3.857 4.187-.426-.408-3.193-1.271-4.512.162-3.391.935-.195 1.7-1.569 10.551.016 2.559.155 14.832h15.961l-1.298-15.158-.276-3.817-4.24-.397-2.976-1.104.046 3.901-5.398.038-.047-5.384 3.935-.046-.869-1.757 2.403-1.525.376-.23 1.306.686 4.193-4.264 1.047 1.048-3.849 3.916.997.507.995-.542.709 1.306-1.686.918-3.646-1.869-.931.591.589 1.186 3.14 1.15a397.62 397.62 0 0 0 4.093.395l2.248-.185-1.65-6.424-.996-.963 1.426-1.476.102 1.514h0zm-14.03-3.579c.034.057.038.14.043.212l.143.099 2.899-.795 4.845-.177.147-.013 2.136.856c2.025-1.531 3.344-3.944 3.344-6.681a8.43 8.43 0 1 0-16.86 0c0 .226.027.435.039.654l3.264 5.845h0zm5.565-12.333c2.708 0 4.918 2.101 4.918 4.687 0 1.262-1.011 3.062-1.325 3.579l-2.317-1.388c.492-.817.941-1.862.941-2.191 0-1.108-.993-2-2.217-2-1.218 0-2.217.892-2.217 2h-2.702c0-2.587 2.206-4.687 4.919-4.687h0zm-7.031 13.283l-.124-.773-2.79-4.992v7.661l-1.845 4.709.193 4.327 2.988.308 1.286-8.759a385.35 385.35 0 0 0 .292-2.481h0zm-22.1 54.444v1.036h-1.031v1.476h1.031v1.032h1.48v-1.032h1.027v-1.476h-1.027v-1.036h-1.48 0zm8.023 2.613l-1.004.028.787-.946-1.148-.95-5.944 7.187-5.942-7.187-1.147.95.79.946-1.142-.028-.094.078-1.464 1.193 2.833 3.423 1.563-1.271.179-1.127 3.465 4.178-3.027 3.655-5.344.522.609 6.353 6.378-.598-.521-5.325 2.866-3.453 2.862 3.453-.518 5.325 6.374.598.612-6.353-5.349-.522-3.022-3.651 3.465-4.187.182 1.132 1.551 1.271 2.845-3.423-1.558-1.271h-.137 0zm-11.611 11.651l.328 3.411-3.409.329-.333-3.412 3.414-.328h0zm8.604 0l3.418.326-.345 3.414-3.413-.329.34-3.411h0zm45.998-101.616H91.14v65.645c0 25.135 23.165 46.362 50.592 46.362 12.757 0 25.566-4.93 35.175-13.539 9.938-8.906 15.419-20.571 15.419-32.823V95.923h-1.358 0zm-17.037 74.334v3.64h-7.578v-3.64h-4.198v3.64h-7.596v-3.64h-4.206v3.64h-7.581v-3.64h-4.209v3.64h-7.591v-3.64h-4.205v3.64h-7.581v-3.64h-4.199v3.64h-7.597v-3.64h-5.555v4.469h2.13v13.321c-6.315-7.407-10.127-16.619-10.127-26.479V98.626h95.789v62.942c0 10.519-4.333 20.585-12.255 28.646v-15.488h2.123v-4.469h-5.564 0zm-53.1 30.432l-.005-.264c0-3.55.857-6.895 2.35-9.832 3.337-6.581 9.907-11.062 17.5-11.062 7.937 0 14.774 4.934 17.948 12.058a21.79 21.79 0 0 1 1.884 8.836 19.81 19.81 0 0 1-.027 1.067c-5.961 2.434-12.364 3.739-18.749 3.739-7.438.001-14.544-1.645-20.901-4.542h0zm12.836-29.494h2.2v-3.636h9.597v3.636h2.203v-3.636h3.169v-14.235l2.885-3.709v-6.074h-4.209v3.636h-3.077v-3.636h-4.214v3.636h-3.059v-3.636h-4.206v3.636h-3.078v-3.636h-4.206v6.074l2.881 3.709v14.235h3.114v3.636h0zm35.379 0h2.198v-3.636h1.348 4.78v-5.992h-15.97v5.992h7.644v3.636h0zm-58.957 0h2.192v-3.636h7.645v-5.992h-15.961v5.992h6.124v3.636h0zM7.349 141.731c0-74.099 60.285-134.385 134.383-134.385s134.382 60.286 134.382 134.385-60.285 134.382-134.382 134.382S7.349 215.829 7.349 141.731h0zm-2.684 0c0 75.574 61.49 137.057 137.066 137.057s137.063-61.482 137.063-137.057S217.308 4.666 141.731 4.666 4.665 66.154 4.665 141.731h0z" fill-rule="evenodd"/></g></svg>